 <svg
      width="369"
      height="98"
      viewBox="0 0 369 98"
      fill="none"
      xmlns="http://www.w3.org/2000/svg"
    >
      <circle cx="40" cy="44.9466" r="40" fill="#FFD700" />
      <line
        x1="42.1867"
        y1="52.017"
        x2="98.2442"
        y2="52.017"
        stroke="#9951FF"
        stroke-width="8"
        stroke-linecap="round"
      />
      <line
        x1="42.1867"
        y1="52.017"
        x2="98.2442"
        y2="52.017"
        stroke="black"
        stroke-opacity="0.2"
        stroke-width="8"
        stroke-linecap="round"
      />
      <line
        x1="4"
        y1="-4"
        x2="83.5892"
        y2="-4"
        transform="matrix(-0.407166 -0.913354 0.867887 -0.496762 98.9211 80)"
        stroke="#9951FF"
        stroke-width="8"
        stroke-linecap="round"
      />
      <line
        x1="4"
        y1="-4"
        x2="83.5892"
        y2="-4"
        transform="matrix(-0.407166 -0.913354 0.867887 -0.496762 98.9211 80)"
        stroke="black"
        stroke-opacity="0.2"
        stroke-width="8"
        stroke-linecap="round"
      />
      <line
        x1="4"
        y1="-4"
        x2="83.5891"
        y2="-4"
        transform="matrix(-0.407178 0.913349 -0.867879 -0.496776 57.9086 0)"
        stroke="#9951FF"
        stroke-width="8"
        stroke-linecap="round"
      />
      <line
        x1="4"
        y1="-4"
        x2="83.5891"
        y2="-4"
        transform="matrix(-0.407178 0.913349 -0.867879 -0.496776 57.9086 0)"
        stroke="black"
        stroke-opacity="0.2"
        stroke-width="8"
        stroke-linecap="round"
      />
      <path
        d="M130.266 39.3594C131.438 39.3594 132.211 39.5117 132.586 39.8164L130.688 49.8359C130.406 49.6016 129.949 49.4258 129.316 49.3086C128.684 49.1914 127.98 49.1328 127.207 49.1328C125.613 49.1328 123.973 49.7188 122.285 50.8906C120.598 52.0625 119.121 53.7031 117.855 55.8125L114.516 80H104.812L110.297 39.9219H119.613L118.98 47.5156C119.59 46.2031 120.434 44.9258 121.512 43.6836C122.613 42.4414 123.914 41.4102 125.414 40.5898C126.914 39.7695 128.531 39.3594 130.266 39.3594ZM160.008 39.3594C161.18 39.3594 161.953 39.5117 162.328 39.8164L160.43 49.8359C160.148 49.6016 159.691 49.4258 159.059 49.3086C158.426 49.1914 157.723 49.1328 156.949 49.1328C155.355 49.1328 153.715 49.7188 152.027 50.8906C150.34 52.0625 148.863 53.7031 147.598 55.8125L144.258 80H134.555L140.039 39.9219H149.355L148.723 47.5156C149.332 46.2031 150.176 44.9258 151.254 43.6836C152.355 42.4414 153.656 41.4102 155.156 40.5898C156.656 39.7695 158.273 39.3594 160.008 39.3594ZM201.281 39.3594L195.691 80H187.043L187.535 72.3359C186.199 74.6328 184.5 76.5781 182.438 78.1719C180.398 79.7656 178.09 80.5625 175.512 80.5625C171.621 80.5625 168.75 79.1914 166.898 76.4492C165.07 73.707 164.156 70.0391 164.156 65.4453C164.156 61.2031 165.035 57.0898 166.793 53.1055C168.551 49.0977 171.199 45.8047 174.738 43.2266C178.301 40.6484 182.625 39.3594 187.711 39.3594C188.977 39.3594 190.371 39.5 191.895 39.7812C193.418 40.0391 194.801 40.3555 196.043 40.7305L201.281 39.3594ZM178.324 73.6719C180.246 73.6719 182.098 72.5703 183.879 70.3672C185.684 68.1641 187.195 65.6797 188.414 62.9141L190.805 46.0391C189.656 45.7109 188.297 45.5469 186.727 45.5469C184.008 45.5469 181.711 46.5078 179.836 48.4297C177.961 50.3516 176.555 52.7891 175.617 55.7422C174.703 58.6719 174.246 61.6367 174.246 64.6367C174.246 67.6836 174.586 69.957 175.266 71.457C175.969 72.9336 176.988 73.6719 178.324 73.6719ZM235.137 39.3594C238.043 39.3594 240.223 40.1797 241.676 41.8203C243.152 43.4375 243.891 46.0859 243.891 49.7656C243.891 51.3828 243.422 55.4492 242.484 61.9648C242.156 64.4258 241.547 68.6562 240.656 74.6562L239.883 79.9297H230.18C230.367 78.4531 230.555 77.0586 230.742 75.7461C230.953 74.4102 231.141 73.168 231.305 72.0195C231.891 67.9648 232.359 64.625 232.711 62C233.484 56.375 233.871 52.6719 233.871 50.8906C233.871 49.5078 233.602 48.5586 233.062 48.043C232.523 47.5273 231.703 47.2695 230.602 47.2695C229.547 47.2695 228.363 47.6211 227.051 48.3242C225.762 49.0039 224.484 49.9297 223.219 51.1016C221.953 52.2734 220.84 53.5742 219.879 55.0039L216.469 79.9297H206.766L212.215 39.9219H221.461L220.898 47.375C222.75 44.9609 224.918 43.0273 227.402 41.5742C229.887 40.0977 232.465 39.3594 235.137 39.3594ZM288.223 39.3594L282.352 82.1445C281.789 86.0352 280.465 89.1523 278.379 91.4961C276.293 93.8633 273.82 95.5273 270.961 96.4883C268.102 97.4727 265.102 97.9648 261.961 97.9648C260.367 97.9648 258.574 97.8125 256.582 97.5078C254.59 97.2031 253.219 96.8867 252.469 96.5586L254.262 89.1758C255.176 89.7148 256.559 90.2656 258.41 90.8281C260.285 91.3906 262.09 91.6719 263.824 91.6719C266.426 91.6719 268.371 90.9688 269.66 89.5625C270.973 88.1797 271.898 86.1289 272.438 83.4102L274.371 72.3008C272.988 74.6211 271.254 76.5781 269.168 78.1719C267.082 79.7656 264.75 80.5625 262.172 80.5625C258.281 80.5625 255.41 79.1914 253.559 76.4492C251.73 73.707 250.816 70.0391 250.816 65.4453C250.816 61.2266 251.707 57.1133 253.488 53.1055C255.27 49.0977 257.953 45.8047 261.539 43.2266C265.125 40.6484 269.461 39.3594 274.547 39.3594C275.812 39.3594 277.207 39.5 278.73 39.7812C280.254 40.0391 281.637 40.3555 282.879 40.7305L288.223 39.3594ZM277.57 46.0039C276.422 45.6992 275.086 45.5469 273.562 45.5469C270.844 45.5469 268.523 46.5195 266.602 48.4648C264.703 50.3867 263.273 52.8242 262.312 55.7773C261.375 58.707 260.906 61.6602 260.906 64.6367C260.906 70.6133 262.266 73.6016 264.984 73.6016C266.906 73.6016 268.781 72.5117 270.609 70.332C272.438 68.1289 273.984 65.6562 275.25 62.9141L277.57 46.0039ZM315.469 39.3594C319.102 39.3594 321.832 40.168 323.66 41.7852C325.488 43.4023 326.402 45.5938 326.402 48.3594C326.402 53.3516 324.199 57.2305 319.793 59.9961C315.387 62.7617 310.09 64.6953 303.902 65.7969C303.762 71 305.836 73.6016 310.125 73.6016C312.047 73.6016 314.062 73.0625 316.172 71.9844C318.305 70.8828 320.133 69.5352 321.656 67.9414L324.223 72.8984C323.449 74 322.289 75.1484 320.742 76.3438C319.195 77.5156 317.332 78.5117 315.152 79.332C312.973 80.1523 310.652 80.5625 308.191 80.5625C304.934 80.5625 302.215 79.8477 300.035 78.418C297.855 76.9648 296.25 75.0547 295.219 72.6875C294.188 70.2969 293.672 67.6953 293.672 64.8828C293.672 60.125 294.609 55.8008 296.484 51.9102C298.383 48.0195 300.984 44.9609 304.289 42.7344C307.617 40.4844 311.344 39.3594 315.469 39.3594ZM316.91 49.2734C316.91 47.8906 316.605 46.9062 315.996 46.3203C315.387 45.7109 314.496 45.4062 313.324 45.4062C311.52 45.4062 309.926 46.2148 308.543 47.832C307.184 49.4258 306.105 51.3828 305.309 53.7031C304.512 56 304.043 58.168 303.902 60.207C305.637 60.1133 307.523 59.5859 309.562 58.625C311.625 57.6406 313.359 56.3281 314.766 54.6875C316.195 53.0469 316.91 51.2422 316.91 49.2734ZM356.883 39.3594C358.055 39.3594 358.828 39.5117 359.203 39.8164L357.305 49.8359C357.023 49.6016 356.566 49.4258 355.934 49.3086C355.301 49.1914 354.598 49.1328 353.824 49.1328C352.23 49.1328 350.59 49.7188 348.902 50.8906C347.215 52.0625 345.738 53.7031 344.473 55.8125L341.133 80H331.43L336.914 39.9219H346.23L345.598 47.5156C346.207 46.2031 347.051 44.9258 348.129 43.6836C349.23 42.4414 350.531 41.4102 352.031 40.5898C353.531 39.7695 355.148 39.3594 356.883 39.3594Z"
        fill="#7A41CC"
      />
    </svg>
  
